Coordinates
version=1
nRows=8
nColumns=40
inDegrees=yes

Units are S.I. units (second, meters, Newtons, ...)
Angles are in degrees.

endheader
time	pelvis_tilt	pelvis_list	pelvis_rotation	pelvis_tx	pelvis_ty	pelvis_tz	hip_flexion_r	hip_adduction_r	hip_rotation_r	knee_angle_r	knee_angle_r_beta	ankle_angle_r	subtalar_angle_r	mtp_angle_r	hip_flexion_l	hip_adduction_l	hip_rotation_l	knee_angle_l	knee_angle_l_beta	ankle_angle_l	subtalar_angle_l	mtp_angle_l	lumbar_extension	lumbar_bending	lumbar_rotation	arm_flex_r	arm_add_r	arm_rot_r	elbow_flex_r	pro_sup_r	wrist_flex_r	wrist_dev_r	arm_flex_l	arm_add_l	arm_rot_l	elbow_flex_l	pro_sup_l	wrist_flex_l	wrist_dev_l
     42.94000000	     -9.44998150	     -6.05612291	     -4.87110235	      0.96486029	      0.93030553	      0.41180342	     36.48954520	     -7.70676855	     -7.38153645	     70.01290733	     70.01290733	      8.53135686	    -16.69901271	      2.69830783	     17.62003638	     -6.90099753	     -8.27830929	     23.57897388	     23.57897388	     16.80541944	     -3.55957953	      1.53683285	    -10.39480693	      4.14738445	      2.05582884	     10.58522929	    -13.94692744	     -0.35730367	     61.97742667	     43.05329096	      0.00000000	      0.00000000	     18.26158452	    -17.34253909	      1.98499022	     49.13480750	     43.64228487	      0.00000000	      0.00000000
     42.95135714	     -9.44558650	     -5.84858657	     -5.00765272	      0.96394748	      0.93026676	      0.41167940	     37.32664394	     -7.91527176	     -7.40664828	     68.82265180	     68.82265180	      8.53904877	    -15.88239060	      2.42429011	     16.75120152	     -6.65238389	     -8.65726908	     23.02070148	     23.02070148	     17.16925001	     -3.08034150	      1.55611447	    -10.47064783	      3.95178263	      2.91666416	      8.24298797	    -14.68075234	     -0.15208709	     58.54072015	     43.19218206	      0.00000000	      0.00000000	     20.26130886	    -17.25943273	      1.67840101	     50.42614284	     43.74494203	      0.00000000	      0.00000000
     42.96271429	     -9.44389520	     -5.73459328	     -5.11856425	      0.96304732	      0.93020403	      0.41165207	     38.01747194	     -7.96070014	     -7.46094159	     67.40877630	     67.40877630	      8.12498117	    -15.41600734	      1.20105027	     15.95328313	     -6.54555365	     -9.12961872	     22.57993116	     22.57993116	     17.48360072	     -2.42860783	      1.28751283	    -10.42349453	      3.85507213	      2.73153950	      8.18741477	    -14.12266045	     -0.55504270	     50.43686765	     43.62596015	      0.00000000	      0.00000000	     21.52649512	    -17.82096697	      1.25692191	     51.89333245	     43.98287902	      0.00000000	      0.00000000
     42.97407143	     -9.36733980	     -5.51769755	     -5.24831927	      0.96227553	      0.93014560	      0.41152265	     38.58585511	     -8.13180297	     -7.47190902	     65.93725989	     65.93725989	      8.08387128	    -14.50721487	      0.86375441	     14.98294428	     -6.24237794	     -9.45617387	     21.94129739	     21.94129739	     17.73997416	     -2.08997405	      1.16462253	    -10.63752460	      3.65766283	      3.45644883	      6.16543584	    -14.62219205	     -0.39530521	     47.17235278	     43.76675937	      0.00000000	      0.00000000	     23.16676341	    -17.75564038	      0.72610461	     53.89690973	     44.11697116	      0.00000000	      0.00000000
     42.98542857	     -9.39706135	     -5.38320098	     -5.30566605	      0.96143187	      0.92993498	      0.41150650	     39.11273595	     -8.15486112	     -7.54203277	     64.19588504	     64.19588504	      7.69882480	    -13.92821409	     -0.16062937	     14.19971096	     -6.06432321	     -9.77678705	     21.37818118	     21.37818118	     17.76309275	     -1.63976281	      0.39497450	    -10.61496788	      3.55364439	      2.82101795	      6.70775952	    -13.92734487	     -0.72492953	     39.08421221	     44.22389985	      0.00000000	      0.00000000	     23.62066967	    -18.51118199	     -0.43411291	     56.60137107	     44.44780713	      0.00000000	      0.00000000
     42.99678571	     -9.44004045	     -5.22647720	     -5.31216554	      0.96062064	      0.92964207	      0.41145255	     39.57232935	     -8.20477258	     -7.64136376	     62.32663688	     62.32663688	      7.70084574	    -13.04445594	     -0.16981291	     13.44661962	     -5.82077909	     -9.93404338	     20.81992727	     20.81992727	     17.97192098	     -1.31081197	      0.32585606	    -10.70621563	      3.50725909	      3.10947878	      4.61435326	    -14.26911988	     -0.63436783	     37.31125180	     44.29109791	      0.00000000	      0.00000000	     25.05165564	    -18.62371124	     -0.90454808	     58.07981378	     44.53891685	      0.00000000	      0.00000000
     43.00814286	     -9.42581540	     -5.02832030	     -5.37584110	      0.95990337	      0.92932194	      0.41160011	     39.88004375	     -8.18675800	     -7.61297192	     60.21979962	     60.21979962	      7.42970999	    -12.24498507	     -0.79002387	     12.61339691	     -5.58125922	    -10.29519342	     20.24358614	     20.24358614	     17.93630646	     -0.83466403	     -0.55925161	    -10.83141245	      3.29374372	      2.80876764	      4.59360202	    -13.91707056	     -1.17656229	     31.11905405	     44.70681776	      0.00000000	      0.00000000	     25.38368598	    -18.95406982	     -2.40825159	     61.56132521	     44.91032442	      0.00000000	      0.00000000
     43.01950000	     -9.47280374	     -4.80872948	     -5.36152444	      0.95917316	      0.92886567	      0.41174183	     40.14371646	     -8.17857294	     -7.63082670	     57.90987713	     57.90987713	      7.38996849	    -11.32965096	     -0.71598669	     11.90124270	     -5.29048676	    -10.46408607	     19.73683251	     19.73683251	     18.13131332	     -0.45433289	     -0.68911573	    -10.92437304	      3.13102200	      3.19126641	      2.51258144	    -14.22384384	     -1.19987688	     29.58282148	     44.78102653	      0.00000000	      0.00000000	     26.66926497	    -18.79950868	     -2.88204277	     63.36371447	     45.01655090	      0.00000000	      0.00000000
